<svg id="Layer_1" data-name="Layer 1" xmlns="http://www.w3.org/2000/svg" viewBox="0 0 737.01 737.01"><defs><style>.cls-1{fill:#41abb5;}.cls-2{fill:#3d9fa8;}.cls-2,.cls-3,.cls-5,.cls-6,.cls-7,.cls-8{fill-rule:evenodd;}.cls-3,.cls-4{fill:#36323b;}.cls-5{fill:#fc0;}.cls-6{fill:#fff;}.cls-7{fill:#e64926;}.cls-8{fill:#2b282e;}</style></defs><rect class="cls-1" width="737.01" height="737.01"/><path class="cls-2" d="M368.5,563.89c156.55,0,283.46,9.2,283.46,20.56S525.05,605,368.5,605,85.05,595.8,85.05,584.45,212,563.89,368.5,563.89Z" transform="translate(0 0.01)"/><path class="cls-3" d="M498.83,557.31c26.84.36,87.95,6.92,106.88-14.59,18.13-20.58,15.16-80.17,15.29-106.19.31-59.54-1.46-119.37-4.41-178.83a14.17,14.17,0,1,1,28.31-1.44c3.71,74.76,6.29,155.06,3.51,229.7-4.1,109.88-60.49,100.9-149.76,99.69a14.17,14.17,0,1,1,.18-28.34Z" transform="translate(0 0.01)"/><ellipse class="cls-4" cx="368.5" cy="455.93" rx="247.52" ry="173.12"/><path class="cls-3" d="M368.59,485.67A164,164,0,0,1,205.35,336.92L184.27,136.85l85.63,54a164,164,0,0,1,197.3-.06l85.53-53.91L531.81,337A164,164,0,0,1,368.59,485.67Z" transform="translate(0 0.01)"/><path class="cls-5" d="M436,303.55a30.32,30.32,0,1,1,26.33-33.84A30.32,30.32,0,0,1,436,303.55Z" transform="translate(0 0.01)"/><path class="cls-3" d="M435.46,299.15a25.88,25.88,0,1,1,22.48-28.89A25.88,25.88,0,0,1,435.46,299.15Z" transform="translate(0 0.01)"/><path class="cls-5" d="M308.51,303.55a30.32,30.32,0,1,1,26.32-33.84A30.31,30.31,0,0,1,308.51,303.55Z" transform="translate(0 0.01)"/><path class="cls-3" d="M308,299.15a25.88,25.88,0,1,1,22.47-28.89A25.88,25.88,0,0,1,308,299.15Z" transform="translate(0 0.01)"/><path class="cls-6" d="M305.38,278.5a5.07,5.07,0,1,1,4.41-5.66A5.08,5.08,0,0,1,305.38,278.5Z" transform="translate(0 0.01)"/><path class="cls-6" d="M432.89,278.5a5.07,5.07,0,1,1,4.4-5.66A5.07,5.07,0,0,1,432.89,278.5Z" transform="translate(0 0.01)"/><path class="cls-6" d="M292.75,346.13a.73.73,0,1,1,.49,1.37L164.56,393a.73.73,0,0,1-.49-1.37l128.68-45.54Zm151.5,0a.73.73,0,1,0-.48,1.37L572.45,393a.73.73,0,1,0,.49-1.37L444.25,346.13Zm.65-16.91a.73.73,0,1,0,.51,1.36l128.27-48.11a.73.73,0,0,0-.51-1.37L444.9,329.22Zm-.34,9a.73.73,0,0,0,0,1.45l132.12-1.32a.73.73,0,0,0,.73-.73.74.74,0,0,0-.74-.73l-132.12,1.33Zm-152.45-9a.73.73,0,1,1-.51,1.36L163.33,282.47a.73.73,0,0,1,.5-1.37l128.28,48.12Zm.34,9a.73.73,0,1,1,0,1.45l-132.13-1.32a.73.73,0,0,1-.72-.73.74.74,0,0,1,.74-.73Z" transform="translate(0 0.01)"/><path class="cls-7" d="M368.56,323.56c5.22-8.67,15.83-5.3,15.6,1.72s-9.48,11.57-16.33,20.63c-5.45-9-15.2-13.75-15-20.63S363.91,314.89,368.56,323.56Z" transform="translate(0 0.01)"/><polygon class="cls-6" points="368.5 403.04 326 382.74 326 430.74 368.5 410.44 411 430.74 411 382.74 368.5 403.04"/><path class="cls-8" d="M205.85,172.55,216.19,255,258,207.3l-52.15-34.75Zm325.31,0L520.82,255,479,207.3Z" transform="translate(0 0.01)"/></svg>