<svg id="Layer_1" data-name="Layer 1" xmlns="http://www.w3.org/2000/svg" viewBox="0 0 737.01 737.01"><defs><style>.cls-1{fill:#41abb5;}.cls-2,.cls-3{fill:#3d9fa8;}.cls-3,.cls-4,.cls-6,.cls-7,.cls-8,.cls-9{fill-rule:evenodd;}.cls-4,.cls-5{fill:#36323b;}.cls-6{fill:#2b282e;}.cls-7{fill:#fc0;}.cls-8{fill:#fff;}.cls-9{fill:#e64926;}</style></defs><rect class="cls-1" width="737.01" height="737.01"/><ellipse class="cls-2" cx="368.5" cy="705.74" rx="131" ry="9.5"/><path class="cls-3" d="M368.5,563.89c156.55,0,283.46,9.2,283.46,20.56S525.05,605,368.5,605,85.05,595.8,85.05,584.45,212,563.89,368.5,563.89Z" transform="translate(0 0.01)"/><path class="cls-4" d="M498.83,557.31c26.84.36,87.95,6.92,106.88-14.59,18.13-20.58,15.16-80.17,15.29-106.19.31-59.54-1.46-119.37-4.41-178.83a14.17,14.17,0,1,1,28.31-1.44c3.71,74.76,6.29,155.06,3.51,229.7-4.1,109.88-60.49,100.9-149.76,99.69a14.17,14.17,0,1,1,.18-28.34Z" transform="translate(0 0.01)"/><ellipse class="cls-5" cx="368.5" cy="455.93" rx="247.52" ry="173.12"/><path class="cls-6" d="M429.93,159.42c9.46,3.58,16.63,13.63,15.87,18.08s-24-.64-49.81-5.05-50.51-8.22-49.75-12.67,11.95-10.64,22.06-10.88a491.62,491.62,0,0,0,6.4-90.3c16.19-6.26,65.95,2.24,79.14,13.51A485,485,0,0,0,429.93,159.42Z" transform="translate(0 0.01)"/><path class="cls-4" d="M368.59,485.67A164,164,0,0,1,205.35,336.92L184.27,136.85l85.63,54a164,164,0,0,1,197.3-.06l85.53-53.91L531.81,337A164,164,0,0,1,368.59,485.67Z" transform="translate(0 0.01)"/><path class="cls-7" d="M436,303.55a30.32,30.32,0,1,1,26.33-33.84A30.32,30.32,0,0,1,436,303.55Z" transform="translate(0 0.01)"/><path class="cls-4" d="M435.46,299.15a25.88,25.88,0,1,1,22.48-28.89A25.88,25.88,0,0,1,435.46,299.15Z" transform="translate(0 0.01)"/><path class="cls-7" d="M308.51,303.55a30.32,30.32,0,1,1,26.32-33.84A30.31,30.31,0,0,1,308.51,303.55Z" transform="translate(0 0.01)"/><path class="cls-4" d="M308,299.15a25.88,25.88,0,1,1,22.47-28.89A25.88,25.88,0,0,1,308,299.15Z" transform="translate(0 0.01)"/><path class="cls-8" d="M305.38,278.5a5.07,5.07,0,1,1,4.41-5.66A5.08,5.08,0,0,1,305.38,278.5Z" transform="translate(0 0.01)"/><path class="cls-8" d="M432.89,278.5a5.07,5.07,0,1,1,4.4-5.66A5.07,5.07,0,0,1,432.89,278.5Z" transform="translate(0 0.01)"/><path class="cls-8" d="M292.75,346.13a.73.73,0,1,1,.49,1.37L164.56,393a.73.73,0,0,1-.49-1.37l128.68-45.54Zm151.5,0a.73.73,0,1,0-.48,1.37L572.45,393a.73.73,0,1,0,.49-1.37L444.25,346.13Zm.65-16.91a.73.73,0,1,0,.51,1.36l128.27-48.11a.73.73,0,0,0-.51-1.37L444.9,329.22Zm-.34,9a.73.73,0,0,0,0,1.45l132.12-1.32a.73.73,0,0,0,.73-.73.74.74,0,0,0-.74-.73l-132.12,1.33Zm-152.45-9a.73.73,0,1,1-.51,1.36L163.33,282.47a.73.73,0,0,1,.5-1.37l128.28,48.12Zm.34,9a.73.73,0,1,1,0,1.45l-132.13-1.32a.73.73,0,0,1-.72-.73.74.74,0,0,1,.74-.73Z" transform="translate(0 0.01)"/><path class="cls-9" d="M368.56,323.56c5.22-8.67,15.83-5.3,15.6,1.72s-9.48,11.57-16.33,20.63c-5.45-9-15.2-13.75-15-20.63S363.91,314.89,368.56,323.56Z" transform="translate(0 0.01)"/><polygon class="cls-8" points="368.5 403.04 326 382.74 326 430.74 368.5 410.44 411 430.74 411 382.74 368.5 403.04"/><path class="cls-8" d="M380.58,708.72c-18.11,0-32.8-18-32.8-40.28s14.69-40.28,32.8-40.28h.58C366.66,636.47,357,651.4,357,668.44s9.67,32,24.17,40.27Z" transform="translate(0 0.01)"/><path class="cls-8" d="M407.49,708.43c-18.78,0-34-18.69-34-41.75s15.22-41.76,34-41.76h.59C393.06,633.54,383,649,383,666.68s10,33.13,25.05,41.74Z" transform="translate(0 0.01)"/><path class="cls-8" d="M430.08,705c-16.58,0-30-16.5-30-36.87s13.44-36.86,30-36.86h.52c-13.27,7.6-22.12,21.26-22.12,36.85s8.85,29.26,22.12,36.86Z" transform="translate(0 0.01)"/><path class="cls-8" d="M355,705.17c-16.38,0-29.67-16.31-29.67-36.43S338.63,632.3,355,632.3h.52c-13.11,7.52-21.86,21-21.86,36.43s8.75,28.91,21.86,36.42Z" transform="translate(0 0.01)"/><path class="cls-8" d="M457.56,702.44c-19.69-6.11-32.72-20.5-29.11-32.16s22.51-16.16,42.2-10.06l.62.2c-17.11-.53-30,4-32.81,13s5.32,20,19.73,29.25Z" transform="translate(0 0.01)"/><path class="cls-8" d="M288.19,650.8c15.23-3.26,24.65-19.58,33.23,20.55s-6.69,29.09-21.92,32.35c-12.79,2.73-25.33-3.32-30.87-14a5.28,5.28,0,0,0,1.68-.08c3.26-.7,5.23-4.42,4.4-8.3s-4.15-6.47-7.41-5.77a5.28,5.28,0,0,0-1.56.61c.69-12,9.66-22.65,22.45-25.38Zm7.05,20.56a5.47,5.47,0,1,0-6.49-4.2A5.47,5.47,0,0,0,295.24,671.36Z" transform="translate(0 0.01)"/><path class="cls-8" d="M427.52,672.35a5.33,5.33,0,0,1-4.45-2.63,5.33,5.33,0,0,1-9-1.83,5.33,5.33,0,0,1-8.58-.59,5.31,5.31,0,0,1-8.7,0,5.33,5.33,0,0,1-9-.35,5.32,5.32,0,0,1-8.4.11,5.32,5.32,0,0,1-8.32.32,5.32,5.32,0,0,1-8.18.46,5.33,5.33,0,0,1-8.57.77,5.33,5.33,0,0,1-8.22.86,5.33,5.33,0,0,1-8.52.83,5.32,5.32,0,0,1-8.41.79,5.32,5.32,0,1,1-1-5.78A5.31,5.31,0,0,1,337,664a5.32,5.32,0,0,1,8.27-1,5.34,5.34,0,0,1,8.58-.77,5.32,5.32,0,0,1,8.35-.71,5.33,5.33,0,0,1,8.6-.74,5.32,5.32,0,0,1,8.44-.16,5.33,5.33,0,0,1,8.91.51,5.32,5.32,0,0,1,8.58.13,5.31,5.31,0,0,1,8.9.16,5.32,5.32,0,0,1,9.41,1.34,5.31,5.31,0,0,1,8.66.73,5.32,5.32,0,1,1,3.84,8.86Z" transform="translate(0 0.01)"/><path class="cls-6" d="M205.85,172.55,216.19,255,258,207.3l-52.15-34.75Zm325.31,0L520.82,255,479,207.3Z" transform="translate(0 0.01)"/></svg>